<svg width="32" height="33" viewBox="0 0 32 33" fill="none" xmlns="http://www.w3.org/2000/svg">
<path fill-rule="evenodd" clip-rule="evenodd" d="M16.0147 0.75C7.1598 0.75 0.00146484 7.9611 0.00146484 16.8822C0.00146484 24.0133 4.58805 30.0497 10.9509 32.1861C11.7464 32.3468 12.0378 31.839 12.0378 31.4119C12.0378 31.0379 12.0116 29.756 12.0116 28.4203C7.55706 29.382 6.62945 26.4972 6.62945 26.4972C5.91359 24.6276 4.8529 24.1471 4.8529 24.1471C3.39494 23.1588 4.9591 23.1588 4.9591 23.1588C6.57635 23.2657 7.42497 24.8148 7.42497 24.8148C8.85637 27.2718 11.1629 26.5775 12.0909 26.1501C12.2233 25.1084 12.6478 24.3873 13.0985 23.9868C9.54569 23.6128 5.80771 22.224 5.80771 16.0274C5.80771 14.2646 6.4436 12.8224 7.45119 11.7007C7.29222 11.3002 6.73532 9.64391 7.61049 7.42715C7.61049 7.42715 8.96257 6.99973 12.0112 9.08309C13.3165 8.72996 14.6625 8.55032 16.0147 8.54881C17.3668 8.54881 18.7451 8.73597 20.0179 9.08309C23.0668 6.99973 24.4189 7.42715 24.4189 7.42715C25.2941 9.64391 24.7369 11.3002 24.5779 11.7007C25.612 12.8224 26.2217 14.2646 26.2217 16.0274C26.2217 22.224 22.4837 23.5859 18.9044 23.9868C19.4878 24.4942 19.9913 25.4556 19.9913 26.9781C19.9913 29.1414 19.9651 30.8777 19.9651 31.4116C19.9651 31.839 20.2568 32.3468 21.052 32.1865C27.4148 30.0494 32.0014 24.0133 32.0014 16.8822C32.0276 7.9611 24.8431 0.75 16.0147 0.75Z" fill="#CFCFFF"/>
</svg>
